<?xml version="1.0" standalone="no"?>
<!DOCTYPE svg PUBLIC "-//W3C//DTD SVG 20010904//EN"
 "http://www.w3.org/TR/2001/REC-SVG-20010904/DTD/svg10.dtd">
<svg version="1.0" xmlns="http://www.w3.org/2000/svg"
 width="700.000000pt" height="700.000000pt" viewBox="0 0 700.000000 700.000000"
 preserveAspectRatio="xMidYMid meet">
<metadata>
Created by potrace 1.14, written by Peter Selinger 2001-2017
</metadata>
<g transform="translate(0.000000,700.000000) scale(0.100000,-0.100000)"
fill="#000000" stroke="none">
<path d="M2619 6369 c0 -8 -2 -21 -3 -29 -2 -8 -7 -51 -11 -95 -11 -114 -19
-189 -30 -275 -2 -19 -7 -57 -10 -85 -3 -27 -7 -70 -10 -95 -3 -25 -7 -67 -10
-95 -3 -27 -8 -66 -10 -85 -3 -19 -7 -60 -10 -90 -7 -73 -15 -137 -20 -180 -7
-47 -13 -102 -20 -180 -3 -36 -7 -76 -10 -90 -2 -14 -7 -54 -10 -90 -3 -36 -8
-76 -10 -90 -2 -14 -7 -54 -10 -90 -3 -36 -8 -76 -10 -90 -2 -14 -7 -54 -10
-90 -3 -36 -8 -76 -10 -90 -2 -14 -6 -52 -10 -85 -3 -33 -8 -76 -10 -95 -2
-19 -9 -80 -15 -135 -6 -55 -13 -120 -16 -145 -3 -25 -8 -67 -11 -95 -3 -27
-7 -61 -8 -75 -2 -14 -4 -41 -5 -60 l-2 -35 -9 30 c-5 17 -11 50 -15 75 -3 25
-7 52 -9 60 -3 8 -7 33 -11 55 -3 22 -17 105 -30 185 -14 80 -27 159 -29 175
-2 17 -16 98 -30 180 -14 83 -28 165 -30 182 -3 18 -12 72 -20 120 -9 49 -18
103 -21 122 -6 49 -14 94 -19 111 -4 14 -14 76 -20 125 -2 11 -11 65 -20 120
-20 113 -23 132 -24 160 -2 34 -19 -5 -27 -61 -3 -27 -8 -58 -10 -69 -2 -11
-9 -49 -14 -85 -6 -36 -13 -76 -16 -90 -2 -14 -7 -41 -10 -60 -2 -19 -11 -71
-19 -115 -8 -44 -17 -98 -20 -120 -11 -71 -15 -99 -26 -157 -5 -32 -12 -70
-15 -85 -11 -70 -14 -91 -19 -128 -4 -22 -8 -47 -10 -55 -3 -8 -7 -33 -10 -55
-6 -41 -9 -56 -19 -115 -14 -81 -16 -97 -22 -130 -2 -19 -11 -71 -19 -115 -16
-91 -21 -122 -30 -183 -14 -95 -8 -97 -163 59 l-142 143 -148 -146 -147 -147
-275 -137 c-151 -75 -281 -141 -288 -147 -10 -8 62 -48 275 -154 l288 -144
147 -147 148 -146 141 142 c78 78 144 140 147 137 7 -7 8 -13 27 -140 3 -22 8
-49 10 -61 3 -12 7 -39 11 -60 3 -21 21 -131 40 -244 19 -113 37 -220 40 -239
3 -18 7 -43 10 -54 2 -12 6 -39 9 -62 3 -22 8 -51 10 -65 3 -14 8 -36 10 -50
3 -14 7 -42 10 -63 3 -21 7 -48 10 -60 2 -12 7 -38 10 -57 2 -19 7 -46 10 -60
8 -46 46 -274 51 -310 2 -19 6 -46 9 -60 3 -14 7 -41 11 -60 3 -19 7 -40 8
-47 5 -32 14 -19 21 29 7 57 10 74 20 128 4 19 9 46 11 60 2 14 7 41 10 60 3
19 8 51 10 70 3 19 7 42 9 50 3 8 7 33 10 55 3 22 8 51 11 65 6 33 12 67 18
115 4 22 13 76 21 120 8 44 17 96 19 115 3 19 7 44 9 55 3 11 7 41 11 66 8 57
10 67 35 209 11 63 22 131 25 150 3 19 7 46 10 60 3 14 7 41 10 60 6 34 9 52
22 130 17 102 23 114 25 54 1 -21 3 -48 4 -59 13 -108 16 -137 20 -180 3 -27
9 -84 14 -125 6 -41 12 -102 15 -135 4 -33 8 -69 10 -80 2 -11 7 -51 10 -90 7
-72 12 -117 21 -195 3 -25 8 -65 10 -90 14 -126 16 -148 20 -182 3 -21 7 -55
10 -75 2 -21 7 -67 10 -103 3 -36 7 -76 10 -90 2 -14 7 -52 10 -85 3 -33 7
-76 10 -95 3 -19 7 -60 10 -90 3 -30 9 -89 15 -130 5 -41 12 -100 15 -130 11
-105 15 -145 20 -185 2 -22 7 -67 10 -100 3 -33 8 -71 10 -85 2 -14 7 -52 10
-85 3 -33 8 -69 10 -80 2 -11 4 -33 4 -49 2 -66 13 -10 26 134 3 30 8 71 10
90 3 19 7 55 10 80 11 99 16 147 21 190 2 25 6 64 9 88 3 23 7 63 10 90 3 26
8 63 10 82 3 19 7 67 10 105 4 39 8 77 10 85 2 8 7 47 11 85 3 39 8 81 10 95
1 14 5 54 9 90 3 36 8 76 10 90 3 14 7 52 11 85 3 33 7 71 9 85 2 14 7 57 10
95 3 39 8 81 10 95 2 14 7 52 10 85 4 33 8 76 11 95 2 19 6 60 9 90 3 30 8 66
10 80 2 14 7 54 10 90 3 36 8 76 10 90 3 14 7 57 10 95 4 39 8 77 10 85 2 8 7
49 10 90 7 70 11 89 18 79 3 -4 265 -1052 272 -1089 2 -8 4 -21 4 -29 2 -31
14 2 43 116 16 65 31 125 33 133 2 8 13 53 25 100 12 47 23 92 25 100 2 8 20
80 40 160 38 148 43 168 51 207 2 12 9 34 14 48 5 14 8 25 5 25 -2 0 2 18 10
40 8 22 14 44 14 48 0 15 34 147 40 154 3 4 69 -121 146 -277 77 -156 142
-284 145 -284 3 -1 68 125 145 279 77 154 142 280 146 280 3 0 11 -51 18 -112
7 -62 15 -122 17 -133 2 -11 10 -78 19 -150 16 -132 23 -190 30 -235 2 -14 6
-50 10 -80 3 -30 8 -71 10 -90 3 -19 7 -51 9 -70 2 -19 6 -53 10 -75 3 -22 13
-98 21 -170 8 -71 17 -141 19 -155 3 -14 7 -49 10 -78 3 -28 8 -67 10 -85 6
-43 17 -125 21 -162 2 -16 7 -52 10 -80 11 -82 14 -107 19 -160 3 -27 8 -61
10 -75 2 -14 7 -52 11 -85 4 -32 8 -66 10 -75 2 -8 6 -44 10 -80 5 -36 9 -74
11 -85 1 -11 3 -31 3 -44 1 -39 9 -21 15 39 4 30 9 66 11 80 2 14 7 50 10 81
3 31 7 65 9 75 2 11 7 48 11 84 4 36 9 72 10 80 2 8 6 49 10 90 4 41 9 77 10
80 2 3 6 35 10 70 3 36 8 76 10 90 4 28 12 90 20 148 2 20 7 55 9 77 3 22 8
65 11 95 3 30 8 66 10 80 7 48 20 146 30 240 4 30 8 66 10 80 5 35 23 176 30
235 3 28 8 64 10 80 2 17 7 53 10 80 4 28 8 61 10 75 2 14 7 52 11 85 3 33 8
68 9 77 2 9 7 48 10 85 4 37 9 70 11 72 5 5 2 14 155 -443 75 -226 140 -404
143 -396 6 15 286 854 286 857 0 0 65 -64 145 -145 l146 -145 152 149 152 149
282 140 c156 77 283 142 283 145 0 3 -127 68 -283 145 l-282 140 -152 149
-152 149 -142 -141 c-78 -78 -145 -142 -150 -142 -5 0 -9 6 -10 13 -1 22 -6
35 -141 439 -73 219 -136 398 -139 398 -4 0 -70 -189 -147 -421 -77 -231 -142
-423 -145 -425 -2 -2 -4 2 -4 9 0 6 -3 35 -7 62 -12 88 -15 119 -21 175 -3 30
-8 66 -10 80 -3 14 -7 48 -10 75 -7 64 -16 132 -20 153 -1 10 -6 44 -9 77 -7
62 -39 316 -61 485 -3 25 -7 63 -10 85 -6 47 -14 117 -20 160 -2 17 -7 53 -10
80 -3 28 -8 64 -10 80 -2 17 -6 50 -9 75 -4 37 -37 295 -51 405 -2 17 -7 55
-10 85 -4 30 -9 64 -10 75 -2 11 -7 47 -10 80 -7 64 -14 84 -16 44 0 -13 -2
-31 -4 -40 -1 -8 -6 -42 -9 -75 -4 -32 -11 -88 -16 -124 -5 -36 -11 -90 -15
-120 -3 -30 -8 -71 -10 -90 -17 -133 -46 -363 -51 -400 -3 -25 -7 -56 -9 -70
-3 -14 -7 -52 -10 -85 -3 -33 -8 -71 -10 -85 -2 -14 -7 -43 -9 -65 -3 -22 -10
-76 -16 -120 -5 -44 -12 -102 -15 -130 -3 -27 -8 -61 -10 -75 -2 -14 -7 -52
-10 -85 -4 -33 -8 -71 -10 -85 -2 -14 -7 -47 -10 -75 -4 -27 -8 -61 -10 -75
-2 -14 -7 -52 -10 -85 -4 -33 -8 -71 -10 -85 -2 -14 -7 -49 -10 -79 -4 -30 -8
-61 -10 -70 -6 -33 -19 -156 -17 -164 10 -39 -34 43 -153 282 -77 155 -142
281 -145 280 -3 0 -68 -128 -145 -284 -77 -157 -142 -281 -146 -277 -5 5 -119
449 -134 522 -17 81 -149 597 -155 603 -4 4 -69 -241 -145 -545 -75 -304 -139
-555 -141 -557 -8 -9 -12 6 -18 69 -4 36 -9 76 -11 90 -3 14 -7 52 -10 85 -3
33 -7 70 -9 81 -2 11 -7 56 -10 100 -4 43 -9 86 -11 94 -2 8 -6 44 -10 80 -3
36 -7 75 -9 85 -2 11 -7 52 -10 90 -4 39 -8 80 -10 90 -2 11 -7 56 -10 100 -4
44 -9 87 -11 95 -2 8 -6 44 -10 80 -3 36 -7 74 -9 85 -2 11 -7 56 -10 100 -4
44 -9 87 -11 95 -2 8 -7 47 -10 85 -3 39 -8 79 -10 90 -2 11 -7 49 -10 85 -3
36 -7 76 -9 90 -3 14 -7 57 -11 95 -3 39 -8 77 -10 85 -2 8 -6 47 -9 85 -3 39
-8 79 -10 90 -2 11 -7 52 -10 90 -4 39 -8 81 -11 95 -2 14 -6 52 -9 85 -11
114 -24 189 -27 144z"/>
</g>
</svg>
